<svg xmlns="http://www.w3.org/2000/svg" xmlns:xlink="http://www.w3.org/1999/xlink" width="500" zoomAndPan="magnify" viewBox="0 0 375 374.999991" height="500" preserveAspectRatio="xMidYMid meet" version="1.0"><defs><g/><clipPath id="2bf76ede3d"><path d="M 194 193 L 204 193 L 204 203 L 194 203 Z M 194 193 " clip-rule="nonzero"/></clipPath><clipPath id="69c71e3ed1"><path d="M 207.414062 153.792969 L 242.0625 182.503906 L 214.3125 216 L 179.660156 187.292969 Z M 207.414062 153.792969 " clip-rule="nonzero"/></clipPath><clipPath id="c6da29d10c"><path d="M 207.414062 153.792969 L 242.0625 182.503906 L 206.175781 225.820312 L 171.523438 197.109375 Z M 207.414062 153.792969 " clip-rule="nonzero"/></clipPath><clipPath id="d443110a80"><path d="M 205 191 L 208 191 L 208 195 L 205 195 Z M 205 191 " clip-rule="nonzero"/></clipPath><clipPath id="9ee9de1784"><path d="M 207.414062 153.792969 L 242.0625 182.503906 L 214.3125 216 L 179.660156 187.292969 Z M 207.414062 153.792969 " clip-rule="nonzero"/></clipPath><clipPath id="6e3692e1e8"><path d="M 207.414062 153.792969 L 242.0625 182.503906 L 206.175781 225.820312 L 171.523438 197.109375 Z M 207.414062 153.792969 " clip-rule="nonzero"/></clipPath><clipPath id="51e7005fda"><path d="M 203 172 L 207 172 L 207 176 L 203 176 Z M 203 172 " clip-rule="nonzero"/></clipPath><clipPath id="819c3213f8"><path d="M 207.414062 153.792969 L 242.0625 182.503906 L 214.3125 216 L 179.660156 187.292969 Z M 207.414062 153.792969 " clip-rule="nonzero"/></clipPath><clipPath id="d2077826b8"><path d="M 207.414062 153.792969 L 242.0625 182.503906 L 206.175781 225.820312 L 171.523438 197.109375 Z M 207.414062 153.792969 " clip-rule="nonzero"/></clipPath><clipPath id="6ab401f6f2"><path d="M 187 158 L 238 158 L 238 213 L 187 213 Z M 187 158 " clip-rule="nonzero"/></clipPath><clipPath id="c7407502a8"><path d="M 207.414062 153.792969 L 242.0625 182.503906 L 214.3125 216 L 179.660156 187.292969 Z M 207.414062 153.792969 " clip-rule="nonzero"/></clipPath><clipPath id="6b81abc453"><path d="M 207.414062 153.792969 L 242.0625 182.503906 L 206.175781 225.820312 L 171.523438 197.109375 Z M 207.414062 153.792969 " clip-rule="nonzero"/></clipPath></defs><g fill="#ffffff" fill-opacity="1"><g transform="translate(106.028178, 214.130187)"><g><path d="M 2.515625 -56.6875 L 17.484375 -56.6875 C 22.015625 -56.6875 25.25 -55.222656 27.1875 -52.296875 C 29.125 -49.378906 30.09375 -45.101562 30.09375 -39.46875 C 30.09375 -33.832031 29.234375 -29.582031 27.515625 -26.71875 C 25.804688 -23.863281 22.726562 -22.4375 18.28125 -22.4375 L 13.65625 -22.4375 L 13.65625 0 L 2.515625 0 Z M 14.328125 -32.671875 C 15.691406 -32.671875 16.691406 -32.921875 17.328125 -33.421875 C 17.960938 -33.929688 18.378906 -34.660156 18.578125 -35.609375 C 18.773438 -36.554688 18.875 -37.910156 18.875 -39.671875 C 18.875 -42.046875 18.609375 -43.757812 18.078125 -44.8125 C 17.554688 -45.863281 16.503906 -46.390625 14.921875 -46.390625 L 13.65625 -46.390625 L 13.65625 -32.671875 Z M 14.328125 -32.671875 "/></g></g></g><g fill="#ffffff" fill-opacity="1"><g transform="translate(137.180196, 214.130187)"><g><path d="M 1.984375 0 L 1.984375 -56.6875 L 12.9375 -56.6875 L 12.9375 0 Z M 1.984375 0 "/></g></g></g><g fill="#ffffff" fill-opacity="1"><g transform="translate(152.162204, 214.130187)"><g><path d="M 1.0625 0 L 1.0625 -10.296875 L 13.984375 -46.265625 L 2.3125 -46.265625 L 2.3125 -56.6875 L 26 -56.6875 L 26 -46.796875 L 12.734375 -10.421875 L 25.40625 -10.421875 L 25.40625 0 Z M 1.0625 0 "/></g></g></g><g fill="#ffffff" fill-opacity="1"><g transform="translate(179.222215, 214.130187)"><g><path d="M 1.0625 0 L 1.0625 -10.296875 L 13.984375 -46.265625 L 2.3125 -46.265625 L 2.3125 -56.6875 L 26 -56.6875 L 26 -46.796875 L 12.734375 -10.421875 L 25.40625 -10.421875 L 25.40625 0 Z M 1.0625 0 "/></g></g></g><g fill="#ffffff" fill-opacity="1"><g transform="translate(206.293797, 214.130187)"><g/></g></g><g fill="#ffffff" fill-opacity="1"><g transform="translate(232.677367, 214.130187)"><g><path d="M 0.984375 0 L 6.46875 -56.6875 L 25.671875 -56.6875 L 31.09375 0 L 20.328125 0 L 19.53125 -9.171875 L 12.671875 -9.171875 L 12.015625 0 Z M 13.53125 -18.21875 L 18.671875 -18.21875 L 16.171875 -47.0625 L 15.640625 -47.0625 Z M 13.53125 -18.21875 "/></g></g></g><g clip-path="url(#2bf76ede3d)"><g clip-path="url(#69c71e3ed1)"><g clip-path="url(#c6da29d10c)"><path fill="#ffffff" d="M 201.867188 194.945312 C 199.910156 193.324219 197.085938 193.597656 195.492188 195.519531 C 193.898438 197.445312 194.199219 200.308594 196.113281 201.890625 C 198.023438 203.476562 200.894531 203.242188 202.488281 201.316406 C 204.082031 199.394531 203.828125 196.570312 201.867188 194.945312 Z M 197.667969 200.015625 C 196.734375 199.242188 196.621094 197.957031 197.359375 197.066406 C 198.097656 196.175781 199.425781 196.089844 200.3125 196.824219 C 201.199219 197.558594 201.363281 198.878906 200.621094 199.773438 C 199.882812 200.664062 198.554688 200.75 197.667969 200.015625 Z M 197.667969 200.015625 " fill-opacity="1" fill-rule="nonzero"/></g></g></g><g clip-path="url(#d443110a80)"><g clip-path="url(#9ee9de1784)"><g clip-path="url(#6e3692e1e8)"><path fill="#ffffff" d="M 206.433594 191.527344 C 205.703125 191.554688 205.15625 192.210938 205.226562 192.980469 C 205.335938 193.703125 205.988281 194.246094 206.671875 194.179688 C 207.402344 194.152344 207.949219 193.492188 207.878906 192.722656 C 207.855469 191.992188 207.203125 191.449219 206.433594 191.527344 Z M 206.433594 191.527344 " fill-opacity="1" fill-rule="nonzero"/></g></g></g><g clip-path="url(#51e7005fda)"><g clip-path="url(#819c3213f8)"><g clip-path="url(#d2077826b8)"><path fill="#ffffff" d="M 204.726562 172.699219 C 203.996094 172.726562 203.453125 173.382812 203.523438 174.152344 C 203.628906 174.878906 204.285156 175.417969 204.96875 175.351562 C 205.699219 175.324219 206.242188 174.667969 206.171875 173.898438 C 206.148438 173.164062 205.496094 172.625 204.726562 172.699219 Z M 204.726562 172.699219 " fill-opacity="1" fill-rule="nonzero"/></g></g></g><g clip-path="url(#6ab401f6f2)"><g clip-path="url(#c7407502a8)"><g clip-path="url(#6b81abc453)"><path fill="#ffffff" d="M 237.5 187.347656 C 237.796875 186.328125 237.609375 185.222656 237.097656 184.324219 C 230.050781 172.703125 219.191406 163.785156 206.394531 159.199219 C 205.367188 158.824219 204.257812 158.933594 203.347656 159.367188 C 202.398438 159.847656 201.699219 160.691406 201.402344 161.714844 L 196.21875 179.265625 L 187.902344 207.4375 C 187.433594 208.949219 187.925781 210.542969 189.136719 211.546875 C 190.347656 212.550781 192.003906 212.734375 193.40625 211.996094 L 235.605469 189.734375 C 236.503906 189.214844 237.207031 188.371094 237.5 187.347656 Z M 198.390625 180.347656 C 198.511719 180.292969 198.550781 180.246094 198.675781 180.191406 C 199.546875 179.804688 200.535156 179.753906 201.46875 180.050781 C 202.363281 180.394531 203.070312 181.0625 203.496094 181.96875 C 204.351562 183.785156 203.511719 185.9375 201.691406 186.804688 C 200.820312 187.191406 199.832031 187.246094 198.9375 186.898438 C 198.09375 186.59375 197.429688 185.96875 196.972656 185.191406 Z M 223.09375 193.535156 C 224.292969 191.046875 223.707031 187.953125 221.515625 186.136719 C 218.90625 183.972656 215.011719 184.304688 212.832031 186.933594 C 210.65625 189.5625 211.003906 193.414062 213.664062 195.617188 C 214.546875 196.351562 215.582031 196.8125 216.671875 196.921875 L 192.300781 209.816406 C 191.476562 210.242188 190.832031 209.785156 190.691406 209.667969 C 190.503906 209.515625 189.9375 208.964844 190.210938 208.160156 L 196.109375 188.039062 C 196.15625 188.074219 196.25 188.152344 196.296875 188.191406 C 196.808594 188.617188 197.398438 188.949219 198.066406 189.1875 C 199.582031 189.730469 201.214844 189.65625 202.710938 188.996094 C 204.203125 188.332031 205.300781 187.101562 205.851562 185.582031 C 206.402344 184.0625 206.378906 182.378906 205.6875 180.9375 C 204.554688 178.414062 201.84375 177.035156 199.167969 177.511719 L 202.054688 167.953125 C 205.964844 169.210938 209.703125 170.964844 213.140625 173.179688 C 212.601562 173.445312 212.160156 173.792969 211.769531 174.261719 C 210.175781 176.183594 210.480469 179.046875 212.390625 180.632812 C 214.304688 182.214844 217.171875 181.980469 218.765625 180.058594 C 219.234375 179.492188 219.519531 178.863281 219.636719 178.246094 C 223.445312 181.71875 226.578125 185.816406 229.066406 190.410156 Z M 220.433594 193.234375 C 219.113281 194.828125 216.757812 195.011719 215.171875 193.699219 C 213.585938 192.386719 213.367188 189.988281 214.652344 188.441406 C 215.972656 186.84375 218.328125 186.660156 219.914062 187.972656 C 221.546875 189.328125 221.757812 191.636719 220.433594 193.234375 Z M 213.675781 175.757812 C 214.296875 175.007812 215.363281 174.863281 216.21875 175.253906 C 216.449219 175.449219 216.683594 175.640625 216.917969 175.832031 C 217.546875 176.59375 217.5625 177.714844 216.941406 178.464844 C 216.199219 179.355469 214.871094 179.441406 213.984375 178.707031 C 213.097656 177.972656 212.9375 176.652344 213.675781 175.757812 Z M 234.453125 187.515625 L 231.242188 189.207031 C 228.078125 183.339844 223.726562 178.152344 218.566406 174.035156 C 218.425781 173.917969 218.324219 173.753906 218.136719 173.601562 C 217.953125 173.445312 217.71875 173.253906 217.492188 173.144531 C 213.046875 169.777344 208.023438 167.199219 202.738281 165.511719 L 203.695312 162.269531 C 203.835938 161.910156 204.070312 161.628906 204.394531 161.421875 C 204.769531 161.257812 205.15625 161.261719 205.554688 161.355469 C 217.773438 165.78125 228.214844 174.351562 235.007812 185.519531 C 235.207031 185.84375 235.285156 186.226562 235.191406 186.621094 C 235.058594 187.066406 234.828125 187.347656 234.453125 187.515625 Z M 234.453125 187.515625 " fill-opacity="1" fill-rule="nonzero"/></g></g></g></svg>